<svg xmlns="http://www.w3.org/2000/svg" viewBox="0 0 32 32" width="32" height="32">
  <!-- 해의 빛나는 광선들 -->
  <g fill="#FFD700" stroke="#FFA500" stroke-width="0.5">
    <!-- 상단 광선들 -->
    <path d="M16 2 L18 6 L22 6 L19 9 L20 13 L16 11 L12 13 L13 9 L10 6 L14 6 Z"/>
    <!-- 우측 광선들 -->
    <path d="M26 16 L22 18 L22 22 L19 19 L15 20 L17 16 L15 12 L19 13 L22 10 L22 14 Z"/>
    <!-- 하단 광선들 -->
    <path d="M16 30 L14 26 L10 26 L13 23 L12 19 L16 21 L20 19 L19 23 L22 26 L18 26 Z"/>
    <!-- 좌측 광선들 -->
    <path d="M6 16 L10 14 L10 10 L13 13 L17 12 L15 16 L17 20 L13 19 L10 22 L10 18 Z"/>
  </g>
  
  <!-- 해의 중심 원 -->
  <circle cx="16" cy="16" r="8" fill="#FFD700" stroke="#FFA500" stroke-width="1"/>
  
  <!-- 웃는 표정 -->
  <g fill="#FF8C00">
    <!-- 왼쪽 눈 -->
    <circle cx="13" cy="14" r="1.5"/>
    <!-- 오른쪽 눈 -->
    <circle cx="19" cy="14" r="1.5"/>
    <!-- 웃는 입 -->
    <path d="M12 20 Q16 24 20 20" stroke="#FF8C00" stroke-width="2" fill="none" stroke-linecap="round"/>
  </g>
</svg>
